<?xml version="1.0" encoding="UTF-8" standalone="no"?>
<!DOCTYPE svg PUBLIC "-//W3C//DTD SVG 1.1//EN" "http://www.w3.org/Graphics/SVG/1.1/DTD/svg11.dtd">
<svg xmlns="http://www.w3.org/2000/svg" xmlns:xl="http://www.w3.org/1999/xlink" version="1.1" viewBox="142 136 379 379" width="379pt" height="379pt" xmlns:dc="http://purl.org/dc/elements/1.1/">
  <metadata> Produced by OmniGraffle 7.2.2 
    <dc:date>2022-01-25 18:29:45 +0000</dc:date>
  </metadata>
  <defs/>
  <g stroke="none" stroke-opacity="1" stroke-dasharray="none" fill="none" fill-opacity="1">
    <title>Canvas 3</title>
    <g>
      <title>Layer 1</title>
      <circle cx="331.6374" cy="325.5" r="189.0003" fill="white"/>
      <path d="M 210.63738 244.5 L 262.13738 198 L 332.1374 176 L 416.6374 198.5 L 471.6374 272 L 475.6374 349.5 L 449.6374 409.5 L 360.6374 353 C 360.6374 353 361.1374 311.5 361.1374 311 C 361.1374 310.5 333.6374 317.5 333.6374 317.5 L 298.63738 357.5 L 243.63738 358 L 199.63738 298 L 200.13738 300 Z" fill="#00fdff"/>
      <path d="M 180.6143 340.34552 C 183.83438 355.9048 186.83022 374.2206 199.05112 385.50657 C 246.85386 429.65306 369.01643 403.5626 373.9614 330.0905 C 375.10723 313.06615 358.5064 297.22317 341.3289 300.95805 C 304.89966 308.87903 301.14154 361.46197 252.39944 348.69345 C 216.20298 339.21166 198.7281 298.664 213.20202 265.14206 C 228.82315 228.96338 265.6609 200.85164 303.67453 192.26237 C 381.70872 174.63024 463.6258 239.01808 463.7246 319.8355 C 463.7926 375.63715 422.20374 432.9675 375.45966 459.9874 C 417.321 472.32556 464.08114 403.83913 474.4941 371.1106 C 498.96426 294.19726 467.84746 209.8863 389.133 179.90781 C 303.7976 147.4076 137.98478 218.53368 196.59026 330.0905 C 216.14419 367.3121 266.37532 382.33367 303.67453 362.76265 C 311.35075 358.73482 343.27223 321.16625 348.8489 326.40314 C 355.4405 332.59307 343.88 346.07945 340.14753 350.5503 C 326.22976 367.2212 307.4364 378.60085 286.58283 384.2404 C 240.16247 396.79496 213.7951 365.62175 180.6143 340.34552 Z M 414.10843 310.0474 C 400.68017 317.41462 411.9552 338.9365 425.64806 329.93224 C 437.5295 322.11928 426.5481 303.22236 414.10843 310.0474 Z M 378.878 357.43722 C 341.71108 416.85036 278.56956 432.87416 214.7977 412.13065 C 242.1369 470.55555 332.62103 436.68083 368.60965 404.66363 C 383.2333 391.65377 407.0704 367.8413 378.878 357.43722 Z M 276.3278 456.56907 C 289.79675 474.5017 318.96715 471.874 337.85792 464.7088 C 379.3087 448.98616 420.7113 414.81302 433.57143 371.1106 C 405.26313 372.03695 398.05967 396.9997 378.7433 414.04834 C 349.97115 439.4425 314.9995 456.24877 276.3278 456.56907 Z" fill="black"/>
      <path d="M 180.6143 340.34552 C 183.83438 355.9048 186.83022 374.2206 199.05112 385.50657 C 246.85386 429.65306 369.01643 403.5626 373.9614 330.0905 C 375.10723 313.06615 358.5064 297.22317 341.3289 300.95805 C 304.89966 308.87903 301.14154 361.46197 252.39944 348.69345 C 216.20298 339.21166 198.7281 298.664 213.20202 265.14206 C 228.82315 228.96338 265.6609 200.85164 303.67453 192.26237 C 381.70872 174.63024 463.6258 239.01808 463.7246 319.8355 C 463.7926 375.63715 422.20374 432.9675 375.45966 459.9874 C 417.321 472.32556 464.08114 403.83913 474.4941 371.1106 C 498.96426 294.19726 467.84746 209.8863 389.133 179.90781 C 303.7976 147.4076 137.98478 218.53368 196.59026 330.0905 C 216.14419 367.3121 266.37532 382.33367 303.67453 362.76265 C 311.35075 358.73482 343.27223 321.16625 348.8489 326.40314 C 355.4405 332.59307 343.88 346.07945 340.14753 350.5503 C 326.22976 367.2212 307.4364 378.60085 286.58283 384.2404 C 240.16247 396.79496 213.7951 365.62175 180.6143 340.34552 Z M 414.10843 310.0474 C 400.68017 317.41462 411.9552 338.9365 425.64806 329.93224 C 437.5295 322.11928 426.5481 303.22236 414.10843 310.0474 Z M 378.878 357.43722 C 341.71108 416.85036 278.56956 432.87416 214.7977 412.13065 C 242.1369 470.55555 332.62103 436.68083 368.60965 404.66363 C 383.2333 391.65377 407.0704 367.8413 378.878 357.43722 Z M 276.3278 456.56907 C 289.79675 474.5017 318.96715 471.874 337.85792 464.7088 C 379.3087 448.98616 420.7113 414.81302 433.57143 371.1106 C 405.26313 372.03695 398.05967 396.9997 378.7433 414.04834 C 349.97115 439.4425 314.9995 456.24877 276.3278 456.56907 Z" stroke="#424242" stroke-linecap="round" stroke-linejoin="round" stroke-width="3"/>
    </g>
  </g>
</svg>
